<svg xmlns="http://www.w3.org/2000/svg" viewBox="0 0 760 460" font-family="'Georgia','Times New Roman',serif">

  <!-- Background -->
  <rect width="760" height="460" fill="#FAFAFA"/>

  <!-- ─── LEFT PANEL: K-Means ─────────────────────────────────────── -->
  <rect x="20" y="20" width="350" height="380" fill="white" stroke="#E5E7EB" stroke-width="1" rx="4"/>

  <!-- Cluster background shading (vertical split) -->
  <clipPath id="left-clip">
    <rect x="20" y="20" width="350" height="380" rx="4"/>
  </clipPath>
  <rect x="20" y="20" width="175" height="380" fill="#FDEAEA" opacity="0.5" clip-path="url(#left-clip)"/>
  <rect x="195" y="20" width="175" height="380" fill="#EAF0FD" opacity="0.5" clip-path="url(#left-clip)"/>

  <!-- Vertical decision boundary -->
  <line x1="195" y1="25" x2="195" y2="395" stroke="#9CA3AF" stroke-width="1.5" stroke-dasharray="5,3"/>

  <!-- Panel title -->
  <text x="195" y="48" text-anchor="middle" font-size="13.5" fill="#1F2937" font-weight="bold">K-Means</text>

  <!-- K-Means points: inner circle -->
  <circle cx="262.0" cy="220.0" r="5" fill="#5A8FE0" stroke="white" stroke-width="1.2"/>
  <circle cx="257.3" cy="236.7" r="5" fill="#5A8FE0" stroke="white" stroke-width="1.2"/>
  <circle cx="253.5" cy="253.8" r="5" fill="#5A8FE0" stroke="white" stroke-width="1.2"/>
  <circle cx="245.3" cy="270.3" r="5" fill="#5A8FE0" stroke="white" stroke-width="1.2"/>
  <circle cx="227.0" cy="275.5" r="5" fill="#5A8FE0" stroke="white" stroke-width="1.2"/>
  <circle cx="211.6" cy="281.9" r="5" fill="#5A8FE0" stroke="white" stroke-width="1.2"/>
  <circle cx="195.0" cy="291.3" r="5" fill="#5A8FE0" stroke="white" stroke-width="1.2"/>
  <circle cx="177.4" cy="285.8" r="5" fill="#E05A5A" stroke="white" stroke-width="1.2"/>
  <circle cx="163.4" cy="274.7" r="5" fill="#E05A5A" stroke="white" stroke-width="1.2"/>
  <circle cx="147.5" cy="267.5" r="5" fill="#E05A5A" stroke="white" stroke-width="1.2"/>
  <circle cx="140.3" cy="251.6" r="5" fill="#E05A5A" stroke="white" stroke-width="1.2"/>
  <circle cx="134.0" cy="236.3" r="5" fill="#E05A5A" stroke="white" stroke-width="1.2"/>
  <circle cx="129.0" cy="220.0" r="5" fill="#E05A5A" stroke="white" stroke-width="1.2"/>
  <circle cx="139.6" cy="205.2" r="5" fill="#E05A5A" stroke="white" stroke-width="1.2"/>
  <circle cx="144.7" cy="190.9" r="5" fill="#E05A5A" stroke="white" stroke-width="1.2"/>
  <circle cx="150.6" cy="175.6" r="5" fill="#E05A5A" stroke="white" stroke-width="1.2"/>
  <circle cx="164.5" cy="167.2" r="5" fill="#E05A5A" stroke="white" stroke-width="1.2"/>
  <circle cx="177.9" cy="156.0" r="5" fill="#E05A5A" stroke="white" stroke-width="1.2"/>
  <circle cx="195.0" cy="158.6" r="5" fill="#E05A5A" stroke="white" stroke-width="1.2"/>
  <circle cx="210.4" cy="162.7" r="5" fill="#5A8FE0" stroke="white" stroke-width="1.2"/>
  <circle cx="230.4" cy="158.6" r="5" fill="#5A8FE0" stroke="white" stroke-width="1.2"/>
  <circle cx="240.3" cy="174.7" r="5" fill="#5A8FE0" stroke="white" stroke-width="1.2"/>
  <circle cx="251.5" cy="187.4" r="5" fill="#5A8FE0" stroke="white" stroke-width="1.2"/>
  <circle cx="252.3" cy="204.7" r="5" fill="#5A8FE0" stroke="white" stroke-width="1.2"/>

  <!-- K-Means points: outer circle -->
  <circle cx="312.8" cy="220.0" r="5" fill="#5A8FE0" stroke="white" stroke-width="1.2"/>
  <circle cx="313.6" cy="240.9" r="5" fill="#5A8FE0" stroke="white" stroke-width="1.2"/>
  <circle cx="303.4" cy="259.5" r="5" fill="#5A8FE0" stroke="white" stroke-width="1.2"/>
  <circle cx="300.2" cy="280.8" r="5" fill="#5A8FE0" stroke="white" stroke-width="1.2"/>
  <circle cx="285.1" cy="295.6" r="5" fill="#5A8FE0" stroke="white" stroke-width="1.2"/>
  <circle cx="271.4" cy="311.0" r="5" fill="#5A8FE0" stroke="white" stroke-width="1.2"/>
  <circle cx="253.8" cy="321.8" r="5" fill="#5A8FE0" stroke="white" stroke-width="1.2"/>
  <circle cx="238.6" cy="339.7" r="5" fill="#5A8FE0" stroke="white" stroke-width="1.2"/>
  <circle cx="215.8" cy="338.1" r="5" fill="#5A8FE0" stroke="white" stroke-width="1.2"/>
  <circle cx="195.0" cy="335.8" r="5" fill="#5A8FE0" stroke="white" stroke-width="1.2"/>
  <circle cx="173.6" cy="341.4" r="5" fill="#E05A5A" stroke="white" stroke-width="1.2"/>
  <circle cx="155.6" cy="328.2" r="5" fill="#E05A5A" stroke="white" stroke-width="1.2"/>
  <circle cx="134.6" cy="324.6" r="5" fill="#E05A5A" stroke="white" stroke-width="1.2"/>
  <circle cx="122.9" cy="305.9" r="5" fill="#E05A5A" stroke="white" stroke-width="1.2"/>
  <circle cx="107.1" cy="293.7" r="5" fill="#E05A5A" stroke="white" stroke-width="1.2"/>
  <circle cx="90.4"  cy="280.4" r="5" fill="#E05A5A" stroke="white" stroke-width="1.2"/>
  <circle cx="79.5"  cy="262.1" r="5" fill="#E05A5A" stroke="white" stroke-width="1.2"/>
  <circle cx="76.1"  cy="241.0" r="5" fill="#E05A5A" stroke="white" stroke-width="1.2"/>
  <circle cx="75.5"  cy="220.0" r="5" fill="#E05A5A" stroke="white" stroke-width="1.2"/>
  <circle cx="78.0"  cy="199.4" r="5" fill="#E05A5A" stroke="white" stroke-width="1.2"/>
  <circle cx="87.8"  cy="181.0" r="5" fill="#E05A5A" stroke="white" stroke-width="1.2"/>
  <circle cx="93.6"  cy="161.4" r="5" fill="#E05A5A" stroke="white" stroke-width="1.2"/>
  <circle cx="104.5" cy="144.0" r="5" fill="#E05A5A" stroke="white" stroke-width="1.2"/>
  <circle cx="115.1" cy="124.8" r="5" fill="#E05A5A" stroke="white" stroke-width="1.2"/>
  <circle cx="134.3" cy="114.9" r="5" fill="#E05A5A" stroke="white" stroke-width="1.2"/>
  <circle cx="156.4" cy="113.9" r="5" fill="#E05A5A" stroke="white" stroke-width="1.2"/>
  <circle cx="173.9" cy="100.5" r="5" fill="#E05A5A" stroke="white" stroke-width="1.2"/>
  <circle cx="195.0" cy="101.5" r="5" fill="#E05A5A" stroke="white" stroke-width="1.2"/>
  <circle cx="215.4" cy="104.5" r="5" fill="#5A8FE0" stroke="white" stroke-width="1.2"/>
  <circle cx="236.9" cy="104.9" r="5" fill="#5A8FE0" stroke="white" stroke-width="1.2"/>
  <circle cx="257.1" cy="112.5" r="5" fill="#5A8FE0" stroke="white" stroke-width="1.2"/>
  <circle cx="274.5" cy="125.2" r="5" fill="#5A8FE0" stroke="white" stroke-width="1.2"/>
  <circle cx="284.4" cy="145.0" r="5" fill="#5A8FE0" stroke="white" stroke-width="1.2"/>
  <circle cx="297.9" cy="160.6" r="5" fill="#5A8FE0" stroke="white" stroke-width="1.2"/>
  <circle cx="309.0" cy="178.5" r="5" fill="#5A8FE0" stroke="white" stroke-width="1.2"/>
  <circle cx="317.0" cy="198.5" r="5" fill="#5A8FE0" stroke="white" stroke-width="1.2"/>

  <!-- K-Means centroids -->
  <circle cx="133.9" cy="214.3" r="9" fill="none" stroke="#C0392B" stroke-width="2.5"/>
  <line x1="128.4" y1="214.3" x2="139.4" y2="214.3" stroke="#C0392B" stroke-width="2.5"/>
  <line x1="133.9" y1="208.8" x2="133.9" y2="219.8" stroke="#C0392B" stroke-width="2.5"/>

  <circle cx="257.3" cy="226.3" r="9" fill="none" stroke="#1A5276" stroke-width="2.5"/>
  <line x1="251.8" y1="226.3" x2="262.8" y2="226.3" stroke="#1A5276" stroke-width="2.5"/>
  <line x1="257.3" y1="220.8" x2="257.3" y2="231.8" stroke="#1A5276" stroke-width="2.5"/>

  <!-- Centroid legend -->
  <circle cx="50" cy="408" r="6" fill="none" stroke="#374151" stroke-width="2"/>
  <line x1="45" y1="408" x2="55" y2="408" stroke="#374151" stroke-width="2"/>
  <line x1="50" y1="403" x2="50" y2="413" stroke="#374151" stroke-width="2"/>
  <text x="62" y="412" font-size="11" fill="#374151">Centroide</text>

  <!-- ─── RIGHT PANEL: Spectral ───────────────────────────────────── -->
  <rect x="390" y="20" width="350" height="380" fill="white" stroke="#E5E7EB" stroke-width="1" rx="4"/>

  <!-- Cluster background shading (ring split) -->
  <clipPath id="right-clip">
    <rect x="390" y="20" width="350" height="380" rx="4"/>
  </clipPath>
  <circle cx="555" cy="220" r="92" fill="#FDEAEA" opacity="0.4" clip-path="url(#right-clip)"/>
  <circle cx="555" cy="220" r="145" fill="#EAF0FD" opacity="0.35" clip-path="url(#right-clip)"/>
  <circle cx="555" cy="220" r="92" fill="#FDEAEA" opacity="0.4" clip-path="url(#right-clip)"/>

  <!-- Panel title -->
  <text x="555" y="48" text-anchor="middle" font-size="13.5" fill="#1F2937" font-weight="bold">Clustering espectral</text>

  <!-- Spectral points: inner circle (all red) -->
  <circle cx="622.0" cy="220.0" r="5" fill="#E05A5A" stroke="white" stroke-width="1.2"/>
  <circle cx="617.3" cy="236.7" r="5" fill="#E05A5A" stroke="white" stroke-width="1.2"/>
  <circle cx="613.5" cy="253.8" r="5" fill="#E05A5A" stroke="white" stroke-width="1.2"/>
  <circle cx="605.3" cy="270.3" r="5" fill="#E05A5A" stroke="white" stroke-width="1.2"/>
  <circle cx="587.0" cy="275.5" r="5" fill="#E05A5A" stroke="white" stroke-width="1.2"/>
  <circle cx="571.6" cy="281.9" r="5" fill="#E05A5A" stroke="white" stroke-width="1.2"/>
  <circle cx="555.0" cy="291.3" r="5" fill="#E05A5A" stroke="white" stroke-width="1.2"/>
  <circle cx="537.4" cy="285.8" r="5" fill="#E05A5A" stroke="white" stroke-width="1.2"/>
  <circle cx="523.4" cy="274.7" r="5" fill="#E05A5A" stroke="white" stroke-width="1.2"/>
  <circle cx="507.5" cy="267.5" r="5" fill="#E05A5A" stroke="white" stroke-width="1.2"/>
  <circle cx="500.3" cy="251.6" r="5" fill="#E05A5A" stroke="white" stroke-width="1.2"/>
  <circle cx="494.0" cy="236.3" r="5" fill="#E05A5A" stroke="white" stroke-width="1.2"/>
  <circle cx="489.0" cy="220.0" r="5" fill="#E05A5A" stroke="white" stroke-width="1.2"/>
  <circle cx="499.6" cy="205.2" r="5" fill="#E05A5A" stroke="white" stroke-width="1.2"/>
  <circle cx="504.7" cy="190.9" r="5" fill="#E05A5A" stroke="white" stroke-width="1.2"/>
  <circle cx="510.6" cy="175.6" r="5" fill="#E05A5A" stroke="white" stroke-width="1.2"/>
  <circle cx="524.5" cy="167.2" r="5" fill="#E05A5A" stroke="white" stroke-width="1.2"/>
  <circle cx="537.9" cy="156.0" r="5" fill="#E05A5A" stroke="white" stroke-width="1.2"/>
  <circle cx="555.0" cy="158.6" r="5" fill="#E05A5A" stroke="white" stroke-width="1.2"/>
  <circle cx="570.4" cy="162.7" r="5" fill="#E05A5A" stroke="white" stroke-width="1.2"/>
  <circle cx="590.4" cy="158.6" r="5" fill="#E05A5A" stroke="white" stroke-width="1.2"/>
  <circle cx="600.3" cy="174.7" r="5" fill="#E05A5A" stroke="white" stroke-width="1.2"/>
  <circle cx="611.5" cy="187.4" r="5" fill="#E05A5A" stroke="white" stroke-width="1.2"/>
  <circle cx="612.3" cy="204.7" r="5" fill="#E05A5A" stroke="white" stroke-width="1.2"/>

  <!-- Spectral points: outer circle (all blue) -->
  <circle cx="672.8" cy="220.0" r="5" fill="#5A8FE0" stroke="white" stroke-width="1.2"/>
  <circle cx="673.6" cy="240.9" r="5" fill="#5A8FE0" stroke="white" stroke-width="1.2"/>
  <circle cx="663.4" cy="259.5" r="5" fill="#5A8FE0" stroke="white" stroke-width="1.2"/>
  <circle cx="660.2" cy="280.8" r="5" fill="#5A8FE0" stroke="white" stroke-width="1.2"/>
  <circle cx="645.1" cy="295.6" r="5" fill="#5A8FE0" stroke="white" stroke-width="1.2"/>
  <circle cx="631.4" cy="311.0" r="5" fill="#5A8FE0" stroke="white" stroke-width="1.2"/>
  <circle cx="613.8" cy="321.8" r="5" fill="#5A8FE0" stroke="white" stroke-width="1.2"/>
  <circle cx="598.6" cy="339.7" r="5" fill="#5A8FE0" stroke="white" stroke-width="1.2"/>
  <circle cx="575.8" cy="338.1" r="5" fill="#5A8FE0" stroke="white" stroke-width="1.2"/>
  <circle cx="555.0" cy="335.8" r="5" fill="#5A8FE0" stroke="white" stroke-width="1.2"/>
  <circle cx="533.6" cy="341.4" r="5" fill="#5A8FE0" stroke="white" stroke-width="1.2"/>
  <circle cx="515.6" cy="328.2" r="5" fill="#5A8FE0" stroke="white" stroke-width="1.2"/>
  <circle cx="494.6" cy="324.6" r="5" fill="#5A8FE0" stroke="white" stroke-width="1.2"/>
  <circle cx="482.9" cy="305.9" r="5" fill="#5A8FE0" stroke="white" stroke-width="1.2"/>
  <circle cx="467.1" cy="293.7" r="5" fill="#5A8FE0" stroke="white" stroke-width="1.2"/>
  <circle cx="450.4" cy="280.4" r="5" fill="#5A8FE0" stroke="white" stroke-width="1.2"/>
  <circle cx="439.5" cy="262.1" r="5" fill="#5A8FE0" stroke="white" stroke-width="1.2"/>
  <circle cx="436.1" cy="241.0" r="5" fill="#5A8FE0" stroke="white" stroke-width="1.2"/>
  <circle cx="435.5" cy="220.0" r="5" fill="#5A8FE0" stroke="white" stroke-width="1.2"/>
  <circle cx="438.0" cy="199.4" r="5" fill="#5A8FE0" stroke="white" stroke-width="1.2"/>
  <circle cx="447.8" cy="181.0" r="5" fill="#5A8FE0" stroke="white" stroke-width="1.2"/>
  <circle cx="453.6" cy="161.4" r="5" fill="#5A8FE0" stroke="white" stroke-width="1.2"/>
  <circle cx="464.5" cy="144.0" r="5" fill="#5A8FE0" stroke="white" stroke-width="1.2"/>
  <circle cx="475.1" cy="124.8" r="5" fill="#5A8FE0" stroke="white" stroke-width="1.2"/>
  <circle cx="494.3" cy="114.9" r="5" fill="#5A8FE0" stroke="white" stroke-width="1.2"/>
  <circle cx="516.4" cy="113.9" r="5" fill="#5A8FE0" stroke="white" stroke-width="1.2"/>
  <circle cx="533.9" cy="100.5" r="5" fill="#5A8FE0" stroke="white" stroke-width="1.2"/>
  <circle cx="555.0" cy="101.5" r="5" fill="#5A8FE0" stroke="white" stroke-width="1.2"/>
  <circle cx="575.4" cy="104.5" r="5" fill="#5A8FE0" stroke="white" stroke-width="1.2"/>
  <circle cx="596.9" cy="104.9" r="5" fill="#5A8FE0" stroke="white" stroke-width="1.2"/>
  <circle cx="617.1" cy="112.5" r="5" fill="#5A8FE0" stroke="white" stroke-width="1.2"/>
  <circle cx="634.5" cy="125.2" r="5" fill="#5A8FE0" stroke="white" stroke-width="1.2"/>
  <circle cx="644.4" cy="145.0" r="5" fill="#5A8FE0" stroke="white" stroke-width="1.2"/>
  <circle cx="657.9" cy="160.6" r="5" fill="#5A8FE0" stroke="white" stroke-width="1.2"/>
  <circle cx="669.0" cy="178.5" r="5" fill="#5A8FE0" stroke="white" stroke-width="1.2"/>
  <circle cx="677.0" cy="198.5" r="5" fill="#5A8FE0" stroke="white" stroke-width="1.2"/>

  <!-- ─── SHARED LEGEND ───────────────────────────────────────────── -->
  <circle cx="290" cy="430" r="6" fill="#E05A5A" stroke="white" stroke-width="1"/>
  <text x="302" cy="430" y="434" font-size="11" fill="#374151">Cluster 1</text>
  <circle cx="370" cy="430" r="6" fill="#5A8FE0" stroke="white" stroke-width="1"/>
  <text x="382" cy="430" y="434" font-size="11" fill="#374151">Cluster 2</text>

</svg>
